HIERARCHY
ROOT hip
{
	OFFSET 0.00000 0.00000 0.00000
	CHANNELS 6 Xposition Yposition Zposition Zrotation Yrotation Xrotation 
	JOINT rightuplegdummy
	{
		OFFSET 0 0 0
		CHANNELS 3 Zrotation Yrotation Xrotation
		JOINT rightupleg
		{
			OFFSET -3.52197 -3.41223 0.04002
			CHANNELS 3 Zrotation Yrotation Xrotation
			JOINT rightleg
			{
				OFFSET 0.00006 -17.42390 1.60435
				CHANNELS 3 Zrotation Yrotation Xrotation
				JOINT rightfoot
				{
					OFFSET 0.06153 -16.50078 -1.63901
					CHANNELS 3 Zrotation Yrotation Xrotation
					JOINT righttoes
					{
						OFFSET 0.00298 -1.73825 3.34613
						CHANNELS 3 Zrotation Yrotation Xrotation
						End Site
						{
							OFFSET 0.00480 -0.05416 3.85043
						}
					}
				}
			}
		}
	}
	JOINT spinedummy
	{
		OFFSET 0 0 0
		CHANNELS 3 Zrotation Yrotation Xrotation
		JOINT spine
		{
			OFFSET 0.00000 4.68130 0.00000
			CHANNELS 3 Zrotation Yrotation Xrotation
			JOINT spine1
			{
				OFFSET -0.00000 10.10138 0.05002
				CHANNELS 3 Zrotation Yrotation Xrotation
				JOINT headdummy
				{
					OFFSET 0 0 0
					CHANNELS 3 Zrotation Yrotation Xrotation
					JOINT head
					{
						OFFSET -0.00000 3.43865 0.00438
						CHANNELS 3 Zrotation Yrotation Xrotation
						End Site
						{
							OFFSET -0.11417 5.02924 0.98962
						}
					}
				}
				JOINT leftshoulder1dummy
				{
					OFFSET 0 0 0
					CHANNELS 3 Zrotation Yrotation Xrotation
					JOINT leftshoulder1
					{
						OFFSET 3.53937 -0.14262 -0.08662
						CHANNELS 3 Zrotation Yrotation Xrotation
						JOINT leftarm
						{
							OFFSET 4.04833 -0.00133 0.12681
							CHANNELS 3 Zrotation Yrotation Xrotation
							JOINT leftforearm
							{
								OFFSET 10.33880 -0.01036 -0.55515
								CHANNELS 3 Zrotation Yrotation Xrotation
								JOINT lefthand
								{
									OFFSET 8.69677 0.07543 0.40060
									CHANNELS 3 Zrotation Yrotation Xrotation
									End Site
									{
										OFFSET 5.28377 -0.21905 0.59205
									}
								}
							}
						}
					}
				}
				JOINT rightshoulderdummy
				{
					OFFSET 0 0 0
					CHANNELS 3 Zrotation Yrotation Xrotation
					JOINT rightshoulder
					{
						OFFSET -3.53937 -0.14262 -0.08660
						CHANNELS 3 Zrotation Yrotation Xrotation
						JOINT rightarm
						{
							OFFSET -4.04833 -0.00133 0.12683
							CHANNELS 3 Zrotation Yrotation Xrotation
							JOINT rightforearm
							{
								OFFSET -10.37987 -0.01039 -0.55511
								CHANNELS 3 Zrotation Yrotation Xrotation
								JOINT righthand
								{
									OFFSET -8.67398 0.07538 0.40058
									CHANNELS 3 Zrotation Yrotation Xrotation
									End Site
									{
										OFFSET -5.24810 -0.21916 0.59204
									}
								}
							}
						}
					}
				}
			}
		}
	}
	JOINT leftuplegdummy
	{
		OFFSET 0 0 0
		CHANNELS 3 Zrotation Yrotation Xrotation
		JOINT leftupleg
		{
			OFFSET 3.52197 -3.41223 0.04002
			CHANNELS 3 Zrotation Yrotation Xrotation
			JOINT leftleg
			{
				OFFSET -0.00012 -17.42399 1.60337
				CHANNELS 3 Zrotation Yrotation Xrotation
				JOINT leftfoot
				{
					OFFSET -0.09972 -16.50070 -1.63802
					CHANNELS 3 Zrotation Yrotation Xrotation
					JOINT lefttoes
					{
						OFFSET -0.01575 -1.73823 3.34611
						CHANNELS 3 Zrotation Yrotation Xrotation
						End Site
						{
							OFFSET 0.03150 -0.01868 3.85031
						}
					}
				}
			}
		}
	}
}
MOTION
Frames: 18
Frame Time: 0.033333
1.0967 38.8788 24.2812 1.9665 -55.0026 3.7281 0.0000 -0.0000 0.0000 -5.1716 -2.4129 -1.4262 -6.1183 -11.3095 22.1970 5.6185 0.3478 -19.8596 0.0000 0.0000 0.0000 0.0000 -0.0000 0.0000 4.5609 1.1921 -0.7616 -2.1899 1.5792 7.2507 -0.0000 -0.0000 -0.0000 -25.6683 37.8444 -39.5817 -0.0000 -0.0000 -0.0000 -36.9402 -12.7388 6.9854 -31.7108 7.4957 -0.5997 175.2591 -80.7500 -149.5628 5.6457 -3.2299 -0.3910 -0.0000 -0.0000 -0.0000 32.6931 6.5391 3.8853 32.6522 -8.2628 12.9959 -18.4297 88.6052 0.7323 -4.8226 7.1578 -0.4605 0.0000 -0.0000 0.0000 5.1294 23.2365 -28.7183 8.8908 8.7354 38.8667 -9.7306 1.5121 6.7909 0.0000 0.0000 0.0000
0.8749 39.4458 24.9976 1.6603 -52.4291 5.2929 0.0000 -0.0000 0.0000 -5.6068 -4.0115 0.3410 -5.0853 -11.0689 17.9972 8.1464 0.2562 -15.7604 0.0000 0.0000 0.0000 0.0000 -0.0000 0.0000 5.2795 2.4043 -2.8946 -3.4111 2.9188 6.5257 -0.0000 -0.0000 -0.0000 -24.7420 36.3547 -37.3944 -0.0000 -0.0000 -0.0000 -36.6044 -12.6061 6.8725 -33.6203 13.4338 -0.2018 175.9523 -79.0932 -150.2185 4.3531 -3.5338 -0.3037 -0.0000 -0.0000 -0.0000 32.8335 6.5206 3.8923 33.0199 -9.1373 13.3709 -55.1404 89.4713 -36.3867 -6.0059 7.1539 -0.5892 0.0000 -0.0000 0.0000 1.1518 27.8693 -31.0183 9.5089 11.4452 33.3861 -7.8958 1.1217 5.2707 0.0000 0.0000 0.0000
0.7496 39.7790 25.7861 0.6068 -49.7444 7.1452 0.0000 -0.0000 0.0000 -5.8176 -7.2431 0.9781 -4.2779 -9.9756 16.7395 10.3491 0.0606 -12.4876 0.0000 0.0000 0.0000 0.0000 -0.0000 0.0000 6.0548 3.5779 -3.8983 -4.1069 4.0759 5.1949 -0.0000 -0.0000 -0.0000 -24.1455 34.8445 -35.7988 -0.0000 -0.0000 -0.0000 -35.5745 -12.3068 6.5779 -35.5355 18.5860 -0.7184 176.2677 -78.6417 -151.2207 3.4333 -3.5757 -0.2339 -0.0000 -0.0000 -0.0000 32.6259 6.5093 3.8670 31.2307 -6.5275 15.5896 -12.7395 87.9993 6.3433 -4.4612 7.6319 -0.4362 0.0000 -0.0000 0.0000 -2.0156 30.6030 -32.9733 7.5013 11.8904 25.4545 -8.9027 1.1216 3.2518 0.0000 0.0000 0.0000
0.7016 39.7089 26.5748 -1.2377 -46.8576 8.4616 0.0000 -0.0000 0.0000 -5.4210 -10.7036 2.2540 -3.9306 -9.6180 17.0157 10.6670 -0.0297 -11.5019 0.0000 0.0000 0.0000 0.0000 -0.0000 0.0000 7.5124 4.6792 -3.2177 -4.9550 5.2237 3.8386 -0.0000 -0.0000 -0.0000 -23.6126 32.4206 -35.4807 -0.0000 -0.0000 -0.0000 -34.5382 -12.1039 6.3285 -35.4804 21.5671 -2.0234 176.7128 -79.3012 -154.3550 3.6489 -3.2223 -0.2424 -0.0000 -0.0000 -0.0000 32.1496 6.5412 3.8315 28.8429 -0.6313 17.7053 -4.1977 84.4206 14.2594 -4.2032 7.5024 -0.4027 0.0000 -0.0000 0.0000 -1.9601 30.0967 -33.2981 4.5363 11.3297 17.3451 -10.0396 1.2048 2.4849 0.0000 0.0000 0.0000
0.6983 39.2579 27.3596 -2.9355 -44.6174 9.2478 0.0000 -0.0000 0.0000 -4.9946 -12.1154 4.1285 -3.9171 -9.7644 17.2352 12.5237 0.1643 -13.2659 0.0000 0.0000 0.0000 0.0000 -0.0000 0.0000 9.5815 5.8031 -1.6988 -7.2737 6.7174 2.6932 -0.0000 -0.0000 -0.0000 -23.0758 29.5870 -35.8462 -0.0000 -0.0000 -0.0000 -34.0071 -12.0082 6.2066 -32.8969 22.6395 -4.4112 177.3261 -80.0267 -158.1500 4.3815 -3.0378 -0.2916 -0.0000 -0.0000 -0.0000 31.3093 6.4981 3.7315 27.1080 8.3960 19.2045 -2.1830 79.9596 15.8949 -5.8914 7.6680 -0.6000 0.0000 -0.0000 0.0000 4.6779 22.9274 -31.2889 1.1515 18.6700 10.4932 -10.0804 1.1568 1.8543 0.0000 0.0000 0.0000
0.6568 38.6174 28.2816 -4.2481 -42.5494 10.0546 0.0000 -0.0000 0.0000 -4.5394 -11.8316 5.9973 -4.7639 -11.7583 17.4309 14.2318 0.4621 -15.5063 0.0000 0.0000 0.0000 0.0000 -0.0000 0.0000 12.1414 6.8387 -1.1550 -10.7829 8.3421 2.4761 -0.0000 -0.0000 -0.0000 -22.4256 26.8579 -36.2450 -0.0000 -0.0000 -0.0000 -33.9621 -11.9721 6.1850 -29.2180 22.0321 -7.4725 177.5854 -81.0160 -160.2202 5.8988 -2.5009 -0.3785 -0.0000 -0.0000 -0.0000 30.3463 6.3648 3.5878 26.6167 19.2724 19.7106 -1.7054 76.2557 16.7720 -6.2506 7.6540 -0.6386 0.0000 -0.0000 0.0000 9.6858 17.5007 -30.9848 -1.0324 29.1032 5.5295 -10.0621 1.0027 0.0224 0.0000 0.0000 0.0000
0.5486 37.9637 29.5486 -5.2626 -39.3616 10.5455 0.0000 -0.0000 0.0000 -4.1315 -11.4218 8.8910 -5.8205 -15.0957 17.1250 15.1269 0.6694 -16.8144 0.0000 0.0000 0.0000 0.0000 -0.0000 0.0000 14.4872 7.6289 -1.5263 -14.1385 9.6294 2.4303 -0.0000 -0.0000 -0.0000 -20.9408 24.2081 -35.4151 -0.0000 -0.0000 -0.0000 -34.3632 -12.0498 6.2792 -26.3969 20.2640 -10.9346 177.1633 -82.4944 -159.8907 7.9395 -1.8870 -0.4807 -0.0000 -0.0000 -0.0000 30.0228 6.3299 3.5437 26.7954 28.5596 18.7223 -1.6846 74.3095 17.8840 -6.4654 7.6199 -0.6613 0.0000 -0.0000 0.0000 10.0587 15.9278 -32.0061 -1.0082 39.9609 3.9370 -7.6813 0.6348 -2.1113 0.0000 0.0000 0.0000
0.4231 37.5025 31.2367 -5.4896 -35.7951 10.5895 0.0000 -0.0000 0.0000 -4.8993 -12.5202 11.4631 -6.4505 -15.2594 18.0963 21.8509 0.9628 -16.6734 0.0000 0.0000 0.0000 0.0000 -0.0000 0.0000 15.2129 8.9000 -3.4234 -16.5953 11.2911 3.1536 -0.0000 -0.0000 -0.0000 -17.9369 21.3754 -32.7758 -0.0000 -0.0000 -0.0000 -34.8969 -12.1635 6.4100 -26.0836 18.3134 -14.4360 176.6529 -83.5732 -159.3286 8.8044 -1.8985 -0.5353 -0.0000 -0.0000 -0.0000 30.0640 6.4312 3.5842 27.5971 33.4128 16.3840 -1.9308 73.6925 19.5660 -6.4262 7.8127 -0.6655 0.0000 -0.0000 0.0000 7.7502 15.5691 -33.3487 1.5489 47.0023 6.7131 -1.8475 0.1625 -0.5668 0.0000 0.0000 0.0000
0.2666 37.3981 33.2989 -5.0487 -31.4854 10.1434 0.0000 -0.0000 0.0000 -6.2997 -13.8951 9.9331 -11.1319 -16.8041 27.9282 27.7016 -0.4724 -10.0001 0.0000 0.0000 0.0000 0.0000 -0.0000 0.0000 13.2043 10.2456 -5.8634 -16.8072 12.6367 2.9586 -0.0000 -0.0000 -0.0000 -13.4127 17.8500 -29.4739 -0.0000 -0.0000 -0.0000 -35.1132 -12.2045 6.4613 -27.8977 17.0915 -15.8862 176.9257 -83.4661 -160.0969 9.1898 -1.6126 -0.5389 -0.0000 -0.0000 -0.0000 30.2286 6.4975 3.6244 28.3587 32.7288 13.7899 -2.2917 74.2335 20.9844 -4.8887 8.0459 -0.4984 0.0000 -0.0000 0.0000 -1.7426 22.1184 -37.2213 5.2150 34.8185 12.5306 3.7873 -0.5142 3.2768 0.0000 0.0000 0.0000
0.0986 37.4199 35.3854 -3.9640 -24.2262 7.3755 0.0000 -0.0000 0.0000 -7.2378 -14.7457 5.0372 -19.6471 -16.4165 45.5771 17.7763 -2.7254 6.1062 0.0000 0.0000 0.0000 0.0000 -0.0000 0.0000 7.9032 9.5824 -6.6723 -13.9944 11.8678 2.4196 -0.0000 -0.0000 -0.0000 -8.6473 13.6192 -27.0930 -0.0000 -0.0000 -0.0000 -35.1155 -12.2461 6.4788 -29.3602 15.1711 -15.0215 176.8591 -83.5470 -159.9643 10.5832 -1.2332 -0.5916 -0.0000 -0.0000 -0.0000 30.4972 6.4884 3.6475 27.6538 29.1644 11.6535 -2.2824 73.7211 21.3754 -5.2647 7.7865 -0.5322 0.0000 -0.0000 0.0000 -12.8166 28.3931 -40.1110 6.7845 14.9752 18.0142 7.1315 -0.9486 3.4593 0.0000 0.0000 0.0000
-0.0266 37.3377 37.0316 -3.6578 -15.5608 3.8128 0.0000 -0.0000 0.0000 -5.6963 -14.0307 -1.7912 -18.9991 -8.6820 60.3939 4.4293 -1.0790 15.3562 0.0000 0.0000 0.0000 0.0000 -0.0000 0.0000 1.2205 7.7169 -6.8937 -9.8057 10.0229 4.3930 -0.0000 -0.0000 -0.0000 -4.0827 9.4872 -24.4219 -0.0000 -0.0000 -0.0000 -35.4346 -12.3555 6.5755 -29.1732 11.4823 -13.4524 175.7463 -84.6873 -157.9275 11.2446 -1.5035 -0.6533 -0.0000 -0.0000 -0.0000 30.9056 6.4480 3.6730 25.7883 24.4693 9.8221 -1.7271 69.3504 21.9502 -5.9741 7.5246 -0.6020 0.0000 -0.0000 0.0000 -11.0282 23.5021 -35.8624 6.9079 11.7946 23.6795 8.8053 -0.9289 0.6140 0.0000 0.0000 0.0000
-0.1255 37.4742 38.4713 -5.0830 -6.4056 0.5001 0.0000 -0.0000 0.0000 -2.0683 -14.2350 -10.3090 -14.0116 -2.8376 72.3393 0.2764 -0.0055 8.0173 0.0000 0.0000 0.0000 0.0000 -0.0000 0.0000 -4.5818 5.1801 -6.3056 -5.5713 7.1521 6.3755 -0.0000 -0.0000 -0.0000 0.8409 5.8452 -20.9080 -0.0000 -0.0000 -0.0000 -35.9991 -12.4643 6.7128 -27.8442 6.6414 -11.5399 173.2373 -86.1714 -154.1714 10.3457 -1.8585 -0.6291 -0.0000 -0.0000 -0.0000 32.0175 6.5056 3.8048 24.0052 18.2474 7.9975 -1.2516 61.0494 22.5302 -7.0886 7.9193 -0.7478 0.0000 -0.0000 0.0000 -7.4651 16.4960 -30.2912 6.9824 10.6577 26.4794 9.3598 -0.8329 -1.1142 0.0000 0.0000 0.0000
-0.2748 37.7417 39.6939 -7.9706 2.3036 -3.2414 0.0000 -0.0000 0.0000 0.9915 -16.5220 -21.5831 -11.7055 -0.2456 82.2686 2.2703 -0.1718 -2.2256 0.0000 0.0000 0.0000 0.0000 -0.0000 0.0000 -9.7938 2.9106 -2.9920 -0.8286 3.8125 6.6282 -0.0000 -0.0000 -0.0000 5.2109 2.6823 -18.5991 -0.0000 -0.0000 -0.0000 -36.4700 -12.5986 6.8471 -26.2731 0.8954 -8.9502 169.1912 -87.3481 -149.1196 9.6295 -2.1574 -0.6067 -0.0000 -0.0000 -0.0000 33.2719 6.5995 3.9674 23.1642 11.2008 6.7045 -0.7902 50.8149 20.5946 -7.6946 8.1636 -0.8314 0.0000 -0.0000 0.0000 -3.2564 10.3813 -25.3154 5.8405 8.0411 28.8084 8.5965 -0.6345 -2.7124 0.0000 0.0000 0.0000
-0.4294 38.1332 40.6737 -12.4731 9.3286 -8.7723 0.0000 -0.0000 0.0000 2.6912 -18.9658 -33.8695 -9.3521 0.9770 89.1953 1.1483 -0.0730 -6.4483 0.0000 0.0000 0.0000 0.0000 -0.0000 0.0000 -12.5953 1.7604 2.9794 3.7938 1.0057 6.1300 -0.0000 -0.0000 -0.0000 7.8171 0.5710 -17.5927 -0.0000 -0.0000 -0.0000 -36.5302 -12.7033 6.9017 -25.1018 -5.6905 -6.3687 161.9982 -88.3369 -141.5313 9.2970 -2.7243 -0.6259 -0.0000 -0.0000 -0.0000 34.1575 6.6780 4.0890 22.7497 5.4196 7.3122 -0.3118 39.2771 15.7197 -7.3577 8.4292 -0.8066 0.0000 -0.0000 0.0000 1.7302 8.4348 -19.7672 3.4623 4.2676 30.3211 7.7427 -0.4562 -4.2322 0.0000 0.0000 0.0000
-0.5635 38.6281 41.4515 -19.2207 15.0776 -16.0455 0.0000 -0.0000 0.0000 3.1080 -21.3521 -44.6481 -6.3905 1.0688 92.1881 0.9858 -0.0452 -9.4417 0.0000 0.0000 0.0000 0.0000 -0.0000 0.0000 -12.6784 1.0867 8.9783 8.8213 -1.6090 6.8587 -0.0000 -0.0000 -0.0000 8.9728 -0.6902 -16.6925 -0.0000 -0.0000 -0.0000 -36.5027 -12.7882 6.9333 -24.0620 -13.1796 -4.2421 98.0265 -89.4736 -77.3425 8.7935 -3.1890 -0.6223 -0.0000 -0.0000 -0.0000 34.5910 6.7369 4.1577 22.2161 1.7878 9.4502 0.3477 26.9157 11.7986 -5.5167 9.0720 -0.6114 0.0000 -0.0000 0.0000 8.5752 7.3669 -14.1464 0.7665 0.5353 31.1515 8.1257 -0.4822 -4.2064 0.0000 0.0000 0.0000
-0.7948 39.0972 42.1282 -28.4035 20.2700 -24.3878 0.0000 -0.0000 0.0000 2.5886 -25.3402 -53.7851 -5.2115 0.9681 92.9001 3.0037 -0.0442 -11.3749 0.0000 0.0000 0.0000 0.0000 -0.0000 0.0000 -10.8615 0.2132 15.1572 14.3006 -4.3369 6.9168 -0.0000 -0.0000 -0.0000 10.1071 -2.1228 -15.7530 -0.0000 -0.0000 -0.0000 -36.3399 -12.7923 6.9079 -22.9908 -20.7699 -1.6119 18.1456 -88.2448 3.1453 8.7840 -3.4098 -0.6366 -0.0000 -0.0000 -0.0000 35.2464 6.8139 4.2576 21.1279 -1.6262 -0.4923 5.3502 14.7886 22.0046 -3.5506 9.7205 -0.3795 0.0000 -0.0000 0.0000 17.3123 4.8032 -11.0217 -2.3902 -3.4072 33.2851 7.5301 -0.4558 -4.0696 0.0000 0.0000 0.0000
-1.1358 39.5792 42.8064 -38.1999 23.3826 -32.7751 0.0000 -0.0000 0.0000 1.0053 -29.5050 -61.5221 -6.1944 1.1240 92.9642 2.2446 -0.0467 -10.9921 0.0000 0.0000 0.0000 0.0000 -0.0000 0.0000 -8.4414 -0.3743 20.0678 19.4604 -6.2183 6.6440 -0.0000 -0.0000 -0.0000 11.5091 -3.9185 -15.2628 -0.0000 -0.0000 -0.0000 -35.8814 -12.7435 6.8106 -22.0733 -27.7456 1.4180 10.2884 -86.8933 11.1947 8.7303 -3.8972 -0.6652 -0.0000 -0.0000 -0.0000 35.6609 6.8337 4.3095 21.0041 -5.9059 -13.0215 8.3099 4.9467 31.7177 -2.9493 9.9123 -0.3039 0.0000 -0.0000 0.0000 26.3694 5.6685 -10.2751 -4.7021 -5.8394 35.4549 5.4178 -0.3407 -3.6630 0.0000 0.0000 0.0000
-1.5409 39.9704 43.5160 -47.0746 25.0919 -39.9895 0.0000 -0.0000 0.0000 -2.1822 -33.9020 -68.0264 -6.9091 1.1037 91.9247 2.5459 -0.0608 -10.3338 0.0000 0.0000 0.0000 0.0000 -0.0000 0.0000 -6.4289 -1.1974 23.4884 22.7727 -7.6157 5.7601 -0.0000 -0.0000 -0.0000 13.3641 -5.3017 -14.5073 -0.0000 -0.0000 -0.0000 -34.5606 -12.4521 6.4738 -21.8818 -33.1068 4.1692 8.9109 -86.4840 12.3412 7.6125 -4.4738 -0.6086 -0.0000 -0.0000 -0.0000 36.1883 6.9000 4.3934 21.9869 -10.5424 -15.8738 7.9254 -0.3469 31.3982 -0.6808 9.8638 -0.0042 0.0000 -0.0000 0.0000 33.4298 9.5388 -11.4254 -3.5241 -4.3644 36.2441 5.0913 -0.4031 -2.0210 0.0000 0.0000 0.0000
